HIERARCHY
ROOT RootJoint
{
    OFFSET   0.000000   0.000000   0.000000
    CHANNELS 6 Xposition Yposition Zposition Xrotation Yrotation Zrotation
    JOINT pelvis_lowerback
    {
        OFFSET   0.000000   0.093605   0.000000
        CHANNELS 3 Xrotation Yrotation Zrotation
        JOINT lowerback_torso
        {
            OFFSET   0.000000   0.100000   0.000000
            CHANNELS 3 Xrotation Yrotation Zrotation
            JOINT torso_head
            {
                OFFSET   0.000000   0.282350   0.000000
                CHANNELS 3 Xrotation Yrotation Zrotation
                End Site
                {
                    OFFSET   0.000000   0.192650   0.000000
                }
            }
            JOINT rTorso_Clavicle
            {
                OFFSET  -0.001000   0.157500   0.000000
                CHANNELS 3 Xrotation Yrotation Zrotation
                JOINT rShoulder
                {
                    OFFSET  -0.117647   0.000000   0.000000
                    CHANNELS 3 Xrotation Yrotation Zrotation
                    JOINT rElbow
                    {
                        OFFSET  -0.245000   0.000000   0.000000
                        CHANNELS 3 Xrotation Yrotation Zrotation
                        JOINT rWrist
                        {
                            OFFSET  -0.240000   0.000000   0.000000
                            CHANNELS 3 Xrotation Yrotation Zrotation
                            End Site
                            {
                                OFFSET  -0.116353  -0.002500   0.000000
                            }
                        }
                    }
                }
            }
            JOINT lTorso_Clavicle
            {
                OFFSET   0.001000   0.157500   0.000000
                CHANNELS 3 Xrotation Yrotation Zrotation
                JOINT lShoulder
                {
                    OFFSET   0.117647   0.000000   0.000000
                    CHANNELS 3 Xrotation Yrotation Zrotation
                    JOINT lElbow
                    {
                        OFFSET   0.245000   0.000000   0.000000
                        CHANNELS 3 Xrotation Yrotation Zrotation
                        JOINT lWrist
                        {
                            OFFSET   0.240000   0.000000   0.000000
                            CHANNELS 3 Xrotation Yrotation Zrotation
                            End Site
                            {
                                OFFSET   0.116353  -0.002500   0.000000
                            }
                        }
                    }
                }
            }
        }
    }
    JOINT rHip
    {
        OFFSET  -0.100000  -0.051395   0.000000
        CHANNELS 3 Xrotation Yrotation Zrotation
        JOINT rKnee
        {
            OFFSET   0.000000  -0.410000   0.000000
            CHANNELS 3 Xrotation Yrotation Zrotation
            JOINT rAnkle
            {
                OFFSET   0.000000  -0.390000   0.000000
                CHANNELS 3 Xrotation Yrotation Zrotation
                JOINT rToeJoint
                {
                    OFFSET   0.000000  -0.050000   0.130000
                    CHANNELS 3 Xrotation Yrotation Zrotation
                    End Site
                    {
                        OFFSET  -0.010000   0.002000   0.060000
                    }
                }
            }
        }
    }
    JOINT lHip
    {
        OFFSET   0.100000  -0.051395   0.000000
        CHANNELS 3 Xrotation Yrotation Zrotation
        JOINT lKnee
        {
            OFFSET   0.000000  -0.410000   0.000000
            CHANNELS 3 Xrotation Yrotation Zrotation
            JOINT lAnkle
            {
                OFFSET   0.000000  -0.390000   0.000000
                CHANNELS 3 Xrotation Yrotation Zrotation
                JOINT lToeJoint
                {
                    OFFSET   0.000000  -0.050000   0.130000
                    CHANNELS 3 Xrotation Yrotation Zrotation
                    End Site
                    {
                        OFFSET   0.010000   0.002000   0.060000
                    }
                }
            }
        }
    }
}
MOTION
Frames: 8
Frame Time:   0.008333
 -2.376719   0.925631   3.975860   0.000000   0.000000   0.000000   0.000000   0.000000   0.000000   0.000000   0.000000   0.000000   0.000000   0.000000   0.000000   0.000000   0.000000   0.000000   0.000000   0.000000   0.000000   0.000000   0.000000   0.000000   0.000000   0.000000   0.000000   0.000000   0.000000   0.000000   0.000000   0.000000   0.000000   0.000000   0.000000   0.000000   0.000000   0.000000   0.000000   0.000000   0.000000   0.000000   0.000000   0.000000   0.000000   0.000000   0.000000   0.000000   0.000000   0.000000   0.000000   0.000000   0.000000   0.000000   0.000000   0.000000   0.000000   0.000000   0.000000   0.000000   0.000000   0.000000   0.000000
 -2.376907   0.925199   3.970083   0.810097  -0.541938  -0.295697  -1.063540  -0.043641   0.357799   2.161702  -0.739243  -0.108372  -2.710453  -0.111263   0.683724  -0.437677   1.652323   0.240104  -0.733978   0.727596   0.931432   0.015297   1.526290  -0.010147   0.019903  -2.704950  -1.508202  -0.977112   0.078950   1.590106   0.470883   1.510864  -3.065412   0.032004  -2.369047   0.028744  -0.257403   1.201989   1.401247  -2.623220   0.037987   0.327176   3.091429  -0.000754  -0.013195  -2.340758  -0.462283   0.060530   0.365212  -0.000231  -0.003032  -1.788291  -0.001988   0.411944  -0.000000  -0.000000   0.000000  -1.072071  -0.042627  -0.871103   2.155931   0.014298  -0.011424
 -2.376814   0.925570   3.961715   1.566285  -1.372586  -0.481838  -1.699343  -0.022611   0.620540   4.690221  -1.351619  -0.164655  -5.305423  -0.293286   1.357652  -0.865604   3.833863   0.821731  -1.444578   1.898128   2.061015   0.039487   3.153976  -0.030601   0.006221  -4.594063  -2.769232  -1.858329  -0.149401   2.818497   1.007393   2.713242  -6.410618   0.071235  -4.689680   0.069095  -0.501383   1.754572   2.344323  -5.453150   0.047183   0.531745   6.110970  -0.001532  -0.031237  -4.521001  -0.903713   0.101590   0.661902  -0.000235  -0.005595  -3.387121  -0.007920   0.699092   0.724861  -0.000358  -0.005144  -1.564961  -0.063934  -1.726407   3.952162   0.023258  -0.023536
 -2.376533   0.926185   3.951231   2.405135  -2.093750  -0.707741  -2.016637  -0.017172   0.926819   7.421632  -1.925906  -0.145444  -7.717730  -0.498630   1.975649  -1.305620   6.256318   1.508920  -2.142563   3.281472   3.236361   0.066565   4.790822  -0.056481   0.004095  -5.740124  -3.727127  -2.663506  -0.694532   3.821763   1.582920   3.585779  -9.889210   0.110931  -6.947716   0.115318  -0.714225   1.770900   2.970137  -8.381668   0.018398   0.769947   8.822908  -0.002462  -0.041219  -6.559197  -1.321433   0.119405   0.925417  -0.000168  -0.007005  -5.026270  -0.052990   1.047542   1.104005  -0.000514  -0.006508  -2.240597  -0.084057  -2.510702   5.722575   0.028437  -0.032595
 -2.376138   0.926904   3.939135   3.314373  -2.562345  -0.963154  -2.047953  -0.044876   1.243547  10.323372  -2.505109  -0.058373  -9.954948  -0.715630   2.545868  -1.772916   8.784136   2.207432  -2.835086   4.768101   4.384426   0.093525   6.398328  -0.084417   0.029060  -6.363002  -4.528395  -3.411247  -1.493378   4.673767   2.150547   4.159901 -13.307636   0.147459  -9.135170   0.163270  -0.887265   1.346400   3.406933 -11.289940  -0.031621   1.006324  11.257921  -0.002533  -0.042086  -8.466869  -1.713055   0.116631   1.151201  -0.000058  -0.007204  -6.854591  -0.124919   1.448364   1.134539  -0.000445  -0.005332  -2.985362  -0.096335  -3.234035   7.355604   0.030349  -0.036037
 -2.375753   0.927539   3.925905   4.248699  -2.725703  -1.273163  -1.816064  -0.106758   1.576854  13.377724  -3.098607   0.101555 -12.020226  -0.938602   3.072143  -2.277255  11.336154   2.859787  -3.525511   6.294325   5.464593   0.118641   7.955830  -0.111665   0.084447  -6.625273  -5.269766  -4.116132  -2.479901   5.437091   2.671986   4.486664 -16.521319   0.178840 -11.243195   0.209155  -1.019948   0.578413   3.743369 -14.072338  -0.093882   1.237229  13.474582  -0.001290  -0.035865 -10.251825  -2.078652   0.096574   1.343270   0.000074  -0.006538  -9.001077  -0.225267   1.923918   0.703295   0.000091  -0.003673  -3.840202  -0.098204  -3.897375   8.886469   0.029996  -0.034995
 -2.375458   0.928078   3.912181   5.182183  -2.653557  -1.626491  -1.393637  -0.164595   1.915337  16.557287  -3.675557   0.331537 -13.917436  -1.162572   3.555485  -2.823462  13.862423   3.461028  -4.214706   7.822323   6.468670   0.141343   9.453341  -0.135720   0.170591  -6.629884  -6.004925  -4.786845  -3.577824   6.156456   3.137057   4.640276 -19.505180   0.205195 -13.261061   0.249382  -1.114695  -0.433416   4.071432 -16.659859  -0.155726   1.437054  15.518040   0.001153  -0.026320 -11.920765  -2.418541   0.063875   1.509384   0.000219  -0.005486 -11.439733  -0.345566   2.431899   0.070273   0.000878  -0.003504  -4.675734  -0.085670  -4.518026  10.268643   0.028398  -0.031105
 -2.374907   0.928056   3.897837   6.718341  -2.651021  -1.642082  -2.346722   0.090675   2.073016  20.544784  -3.959293   0.442414 -15.815125  -1.315968   3.910537  -4.117018  16.706429   3.782380  -5.771952   8.999867   7.398724   0.120193   9.753528  -0.114875   0.276448  -6.459892  -6.160363  -6.849611  -5.243752   6.771588   2.872269   4.166353 -21.866791   0.198078 -14.566681   0.232696  -1.459277  -0.989778   4.183090 -20.490611  -0.200981   1.268726  19.109096   0.006920  -0.020832 -12.917243  -3.156592   0.291360   2.003277   0.000109  -0.007293 -15.708771  -0.421136   2.584641   3.201527  -0.002068   0.000218  -5.582300   0.253425  -5.272714  10.214920   0.022384  -0.025015
